PathFileType	4	(X/Y/Z)	C:\Users\WrightLab\Desktop\Jo\P1_boxCal16.trc
DataRate	CameraRate	NumFrames	NumMarkers	Units	OrigDataRate	OrigDataStartFrame	OrigNumFrames
100.00	100.00	      22	19	mm	100.00	574	      1146
Frame#	Time	Headset_Front			Headset_Back			Headset_Left			Headset_Right			Left_Shoulder			Right_Shoulder			Sternum			C7			Left Elbow			Right Elbow			Left Wrist			Right Wrist			Left ASIS			Right ASIS			S2			Left Knee			Right Knee			Left Ankle			Right Ankle			
		X1	Y1	Z1	X2	Y2	Z2	X3	Y3	Z3	X4	Y4	Z4	X5	Y5	Z5	X6	Y6	Z6	X7	Y7	Z7	X8	Y8	Z8	X9	Y9	Z9	X10	Y10	Z10	X11	Y11	Z11	X12	Y12	Z12	X13	Y13	Z13	X14	Y14	Z14	X15	Y15	Z15	X16	Y16	Z16	X17	Y17	Z17	X18	Y18	Z18	X19	Y19	Z19	

574	5.730				-622.10834	1023.91431	1855.02832										-440.29660	187.46101	2244.53174													-545.84479	523.64319	2211.68726													-362.66843	860.45770	2168.12842										
575	5.740																-438.37900	188.49954	2252.19653													-545.95349	524.36859	2213.45728													-360.38644	861.35059	2175.29199										
576	5.750	-1075.72656	842.44891	2449.31763													-438.84796	187.92882	2262.26172													-545.83112	523.45654	2218.08862													-358.06213	863.41821	2183.85547										
577	5.760				-1077.81360	843.51227	2442.50952										-439.16367	189.26108	2271.89404													-544.65607	523.02887	2221.38867													-356.21707	863.92590	2191.70996										
578	5.770																-439.98389	188.88208	2281.65112													-543.02277	523.32965	2226.48315													-354.24606	864.45880	2199.06714										
579	5.780	-832.03094	508.15674	2450.60620	-442.06519	155.26799	2404.97900										-442.24835	188.32614	2290.59106													-540.88794	523.16418	2229.11133													-352.65366	864.76294	2206.47290										
580	5.790							-403.00800	1089.97131	2307.51807	-1086.01965	846.18854	2425.56860	-831.67114	508.25397	2450.16211	-442.61148	187.74806	2304.71191													-538.31158	523.30530	2234.34082													-351.61893	864.86926	2213.74170										
581	5.800										-1090.00269	845.89978	2420.60938	-831.39819	508.28024	2449.97559	-444.60474	186.68842	2314.17847													-535.26953	522.64978	2239.39844													-350.71265	865.33044	2221.07373										
582	5.810	-402.83969	1090.73523	2321.65967										-831.56665	508.49960	2450.11768	-446.87979	186.12000	2325.88989													-532.19543	522.20709	2244.05957													-349.78922	864.99976	2227.84595										
583	5.820				-403.02463	1090.97925	2327.63550							-831.66296	508.16415	2449.70190	-449.72034	183.90981	2337.16113													-528.71301	521.18164	2249.46094													-349.01440	864.70514	2235.16162										
584	5.830	-402.93866	1090.89160	2334.57397										-831.84479	507.95148	2449.48022	-452.10416	182.79024	2351.07080													-524.25452	520.09711	2258.56689	-851.75983	743.63483	3106.29565										-348.67270	864.44720	2241.70435										
585	5.840													-832.14020	507.79666	2449.39819	-456.59494	180.16096	2359.24072													-520.31012	518.97119	2264.49219	-853.41522	742.17841	3111.11914										-348.02502	864.15466	2248.31348										
586	5.850	-403.79843	1090.65735	2347.00586										-832.31293	507.40906	2449.06445	-460.08868	179.10747	2371.48486													-517.41547	517.41626	2271.69287													-347.65613	863.39557	2254.70508										
587	5.860				-525.21490	134.48878	2468.68457							-831.96332	507.11130	2448.69165	-464.91586	176.40717	2381.19287													-514.23877	517.91302	2281.11621													-347.71277	862.67218	2261.50342										
588	5.870	-404.97266	1089.61194	2357.43945										-831.73102	506.70801	2448.14111	-468.20267	174.58563	2392.26758													-510.67706	516.08911	2289.20215	-535.27545	132.06033	2474.70654										-347.52240	861.88995	2267.68286										
589	5.880	-405.96744	1088.76099	2363.82642	-1084.85547	840.77014	2376.78198							-831.71753	506.30463	2447.50122	-472.52414	172.95888	2402.07275													-507.94992	515.60504	2297.13501							-543.65759	129.76984	2478.96997				-347.80179	860.88885	2273.87866										
590	5.890	-406.93747	1087.95239	2367.92505										-831.45105	505.99631	2446.77075	-475.88141	170.81660	2409.78101													-505.89490	514.69202	2304.04102													-347.84088	859.69672	2280.14087										
591	5.900	-407.59393	1087.23657	2372.73560	-1080.24963	838.98657	2368.73242							-831.46497	505.69583	2445.94556	-479.36670	168.93352	2418.87207													-503.58536	513.88959	2312.00244	-558.85706	126.28179	2487.37036										-348.34192	858.37939	2285.40308										
592	5.910													-831.15576	505.70264	2445.11963	-481.91870	167.95508	2425.46484													-502.00070	514.63800	2319.45288	-565.66437	125.42168	2491.83423										-348.68033	857.21722	2291.03613										
593	5.920	-408.39142	1085.42786	2380.43457	-1072.54285	835.87872	2358.36792							-830.99493	505.50613	2443.86475	-484.95438	165.45677	2431.22266													-499.98309	513.82117	2326.15332	-570.61804	121.39868	2493.44580										-349.15628	855.83850	2296.00244										
594	5.930	-408.57358	1084.24463	2384.72656										-830.82910	505.52084	2442.74341	-485.52573	163.20007	2438.37695													-498.11331	512.27045	2333.20923	-575.11176	117.98844	2494.96289				-606.10614	897.32831	2477.63770				-349.64618	854.44934	2301.38672										
595	5.940	-408.64398	1083.40454	2388.14575	-1063.93848	832.94257	2348.68237							-830.79749	505.47095	2441.62549	-487.46228	161.67386	2442.18921													-496.53696	512.29199	2340.45361	-578.46960	116.85483	2496.38721				-604.96753	897.07813	2477.62671				-350.14252	853.04828	2305.99634										
